<svg width="212" height="71" viewBox="0 0 212 71" fill="none" xmlns="http://www.w3.org/2000/svg">
<path d="M113.248 55.904C111.68 55.904 110.176 55.76 108.736 55.472C107.328 55.184 106.08 54.64 104.992 53.84C103.936 53.008 103.088 51.824 102.448 50.288C101.84 48.72 101.536 46.672 101.536 44.144C101.536 41.872 101.84 39.92 102.448 38.288C103.056 36.656 103.776 35.36 104.608 34.4C105.472 33.44 106.256 32.848 106.96 32.624L106.72 31.712H105.904C104.432 31.712 103.264 31.248 102.4 30.32C101.568 29.36 101.136 28.064 101.104 26.432C101.072 24.832 101.488 23.552 102.352 22.592C103.248 21.632 104.432 21.152 105.904 21.152H123.136C126.56 21.152 128.272 22.752 128.272 25.952C128.272 27.392 127.856 28.544 127.024 29.408C126.192 30.272 124.896 30.704 123.136 30.704H113.2C112.016 30.704 111.424 31.392 111.424 32.768V36.368C113.024 36.016 114.688 35.6 116.416 35.12C118.176 34.64 119.84 34.4 121.408 34.4C122.912 34.4 124.032 34.736 124.768 35.408C125.536 36.048 125.92 36.928 125.92 38.048C125.92 39.2 125.536 40.112 124.768 40.784C124.032 41.424 122.912 41.76 121.408 41.792C119.84 41.824 118.176 41.6 116.416 41.12C114.656 40.64 112.976 40.224 111.376 39.872V46.16C111.376 46.768 111.536 47.2 111.856 47.456C112.208 47.68 112.752 47.584 113.488 47.168C115.088 46.24 116.656 45.504 118.192 44.96C119.728 44.384 121.232 44.096 122.704 44.096C124.784 44.096 126.352 44.64 127.408 45.728C128.496 46.816 129.04 48.24 129.04 50C129.04 51.888 128.464 53.344 127.312 54.368C126.192 55.392 124.368 55.904 121.84 55.904H113.248ZM141.676 34.352L148.876 24.176C150.156 22.352 151.548 21.328 153.052 21.104C154.556 20.848 155.916 21.2 157.132 22.16C157.932 22.768 158.46 23.584 158.716 24.608C158.972 25.632 158.892 26.72 158.476 27.872C158.06 29.024 157.228 30.112 155.98 31.136L147.964 37.616V38.624C148.988 38.624 150.188 38.752 151.564 39.008C152.94 39.264 154.188 39.84 155.308 40.736C156.204 41.408 156.972 42.176 157.612 43.04C158.284 43.904 158.812 44.976 159.196 46.256C159.58 47.504 159.772 49.088 159.772 51.008C159.772 52.576 159.34 53.84 158.476 54.8C157.644 55.728 156.396 56.192 154.732 56.192C153.068 56.192 151.788 55.728 150.892 54.8C150.028 53.84 149.596 52.576 149.596 51.008C149.596 49.248 149.308 47.856 148.732 46.832C148.188 45.776 147.452 45.008 146.524 44.528C145.596 44.048 144.588 43.808 143.5 43.808H141.148V51.344C141.148 52.72 140.668 53.856 139.708 54.752C138.78 55.648 137.58 56.096 136.108 56.096C134.636 56.096 133.42 55.648 132.46 54.752C131.532 53.856 131.068 52.72 131.068 51.344V25.952C131.068 24.544 131.532 23.36 132.46 22.4C133.388 21.44 134.604 20.96 136.108 20.96C137.708 20.96 138.94 21.44 139.804 22.4C140.7 23.328 141.148 24.48 141.148 25.856V34.256L141.676 34.352ZM160.448 43.52C160.448 40.992 160.944 38.768 161.936 36.848C162.96 34.928 164.4 33.424 166.256 32.336C168.144 31.248 170.384 30.704 172.976 30.704C174.992 30.704 176.8 31.072 178.4 31.808C180.032 32.544 181.312 33.536 182.24 34.784C183.168 36 183.632 37.344 183.632 38.816C183.632 40.352 183.184 41.44 182.288 42.08C181.392 42.72 180.064 43.04 178.304 43.04H168.224C168.224 43.872 168.544 44.56 169.184 45.104C169.856 45.648 170.976 45.92 172.544 45.92C173.344 45.92 174.08 45.84 174.752 45.68C175.456 45.52 176.16 45.376 176.864 45.248C177.6 45.088 178.416 45.008 179.312 45.008C180.592 45.008 181.648 45.472 182.48 46.4C183.312 47.296 183.728 48.544 183.728 50.144C183.728 52.032 182.752 53.504 180.8 54.56C178.88 55.616 176.352 56.144 173.216 56.144C171.008 56.144 168.928 55.712 166.976 54.848C165.056 53.984 163.488 52.624 162.272 50.768C161.056 48.88 160.448 46.464 160.448 43.52ZM176 41.456C176.48 41.456 176.64 41.232 176.48 40.784C176.352 40.336 175.968 39.872 175.328 39.392C174.688 38.912 173.76 38.672 172.544 38.672C171.136 38.672 170.08 38.976 169.376 39.584C168.704 40.192 168.368 40.816 168.368 41.456H176ZM193.009 56C190.641 56 188.785 55.36 187.441 54.08C186.129 52.8 185.473 51.008 185.473 48.704C185.473 46.4 186.241 44.736 187.777 43.712C189.313 42.656 191.281 42.128 193.681 42.128C195.089 42.128 196.369 42.224 197.521 42.416C198.673 42.608 199.713 42.88 200.641 43.232H200.785V42.512C200.785 41.776 200.513 41.2 199.969 40.784C199.425 40.336 198.737 40.128 197.905 40.16C197.105 40.16 196.417 40.208 195.841 40.304C195.297 40.4 194.609 40.56 193.777 40.784C192.241 41.168 190.913 41.136 189.793 40.688C188.673 40.24 187.905 39.36 187.489 38.048C187.105 36.672 187.185 35.52 187.729 34.592C188.305 33.664 189.169 32.944 190.321 32.432C191.313 31.952 192.417 31.552 193.633 31.232C194.881 30.912 196.225 30.752 197.665 30.752C201.857 30.752 204.929 31.776 206.881 33.824C208.865 35.84 209.857 39.232 209.857 44V51.44C209.857 52.752 209.457 53.84 208.657 54.704C207.857 55.568 206.753 56 205.345 56C203.809 56 202.657 55.568 201.889 54.704C201.153 53.84 200.785 52.784 200.785 51.536V50.432H199.825C199.825 51.264 199.665 52.112 199.345 52.976C199.057 53.84 198.433 54.56 197.473 55.136C196.545 55.712 195.057 56 193.009 56ZM193.489 45.488C193.489 46.032 193.681 46.416 194.065 46.64C194.481 46.864 195.361 46.976 196.705 46.976C197.921 46.976 198.769 46.864 199.249 46.64C199.729 46.416 199.969 46.032 199.969 45.488C199.969 44.976 199.729 44.624 199.249 44.432C198.769 44.208 197.921 44.096 196.705 44.096C195.361 44.096 194.481 44.208 194.065 44.432C193.681 44.624 193.489 44.976 193.489 45.488Z" fill="white"/>
<path d="M15.2727 70.1275C14.1909 70.1275 13.2847 69.7908 12.5542 69.1175C11.8236 68.4441 11.4571 67.6117 11.4545 66.6204V63.1133C8.27272 63.1133 5.56818 62.0904 3.34091 60.0446C1.11364 57.9988 0 55.5147 0 52.5921V35.0567C0 33.1278 0.748364 31.4771 2.24509 30.1047C3.74182 28.7322 5.53891 28.0448 7.63636 28.0425C9.73381 28.0402 11.5322 28.7276 13.0315 30.1047C14.5307 31.4818 15.2778 33.1324 15.2727 35.0567V49.085H68.7273V35.0567C68.7273 33.1278 69.4756 31.4771 70.9723 30.1047C72.4691 28.7322 74.2662 28.0448 76.3636 28.0425C78.4611 28.0402 80.2594 28.7276 81.7587 30.1047C83.258 31.4818 84.0051 33.1324 84 35.0567V52.5921C84 55.5147 82.8863 57.9988 80.6591 60.0446C78.4318 62.0904 75.7272 63.1133 72.5454 63.1133V66.6204C72.5454 67.6141 72.1789 68.4476 71.4458 69.121C70.7127 69.7943 69.8065 70.1298 68.7273 70.1275C67.648 70.1252 66.7418 69.7885 66.0087 69.1175C65.2756 68.4464 64.9091 67.6141 64.9091 66.6204V63.1133H19.0909V66.6204C19.0909 67.6141 18.7244 68.4476 17.9913 69.121C17.2582 69.7943 16.352 70.1298 15.2727 70.1275ZM22.9091 42.0708V35.0567C22.9091 31.8418 21.8438 28.9625 19.7133 26.4187C17.5827 23.8749 14.8298 22.0781 11.4545 21.0283V17.5212C11.4545 14.5987 12.5682 12.1145 14.7954 10.0687C17.0227 8.0229 19.7273 7 22.9091 7H61.0909C64.2727 7 66.9773 8.0229 69.2045 10.0687C71.4318 12.1145 72.5454 14.5987 72.5454 17.5212V21.0283C69.1091 21.8467 66.3409 23.5569 64.2409 26.1592C62.1409 28.7615 61.0909 31.7273 61.0909 35.0567V42.0708H22.9091Z" fill="white"/>
</svg>
