<svg width="28" height="28" viewBox="0 0 28 28" fill="none" xmlns="http://www.w3.org/2000/svg">
<path fill-rule="evenodd" clip-rule="evenodd" d="M7.70833 6.16667C7.70833 4.53116 8.35803 2.96265 9.51451 1.80617C10.671 0.6497 12.2395 0 13.875 0C15.5105 0 17.079 0.6497 18.2355 1.80617C19.392 2.96265 20.0417 4.53116 20.0417 6.16667C20.0417 7.80217 19.392 9.37068 18.2355 10.5272C17.079 11.6836 15.5105 12.3333 13.875 12.3333C12.2395 12.3333 10.671 11.6836 9.51451 10.5272C8.35803 9.37068 7.70833 7.80217 7.70833 6.16667ZM7.70833 15.4167C5.66396 15.4167 3.70331 16.2288 2.25772 17.6744C0.812126 19.12 0 21.0806 0 23.125C0 24.3516 0.487276 25.528 1.35463 26.3954C2.22199 27.2627 3.39837 27.75 4.625 27.75H23.125C24.3516 27.75 25.528 27.2627 26.3954 26.3954C27.2627 25.528 27.75 24.3516 27.75 23.125C27.75 21.0806 26.9379 19.12 25.4923 17.6744C24.0467 16.2288 22.086 15.4167 20.0417 15.4167H7.70833Z" fill="#2B1155"/>
</svg>
